<svg xmlns="http://www.w3.org/2000/svg" width="525" height="115.31" viewBox="0 0 525 115.31">
  <defs>
    <style>
      .cls-1 {
        fill: none;
        stroke: #fff;
        stroke-width: 4px;
        fill-rule: evenodd;
      }
    </style>
  </defs>
  <path class="cls-1" d="M1359,1157a155.864,155.864,0,0,1,32-1c4.59,0.34,15.54,1.93,24,2,8.98,0.07,16.07-1.02,25-2a202.65,202.65,0,0,1,33-1c7.74,0.42,18.07,2.08,28,2,9.74-.08,17.26-1.85,27-2,9.77-.15,21.12,1.63,33,3,8.15,0.94,17.09,1.93,23,2,11.21,0.12,19.79-1.88,31-2,11.35-.12,19.65,2.14,31,2,10.5-.13,18.5-2.07,29-2,9.32,0.06,16.69,1.69,26,2,12.07,0.41,26.61-1.62,34-2a308.206,308.206,0,0,1,31,0q15.105,0.765,30,3a45.265,45.265,0,0,1,23,9,43.486,43.486,0,0,1,12,14,42.8,42.8,0,0,1,5,18q0.495,6,1,12a67.716,67.716,0,0,1-4,17,59.266,59.266,0,0,1-10.64,18.36A46.336,46.336,0,0,1,1809,1260a41.124,41.124,0,0,1-22,4,156.463,156.463,0,0,0-19-2c-9.96-.44-18.57.92-28,1-11.87.1-20.19-2.25-32-1-9.32.99-15.63,3.65-25,4-10.78.41-20.57-2.39-29-3-10.11-.73-17.86.91-28,1-10.54.1-19.46-1.08-30-1-9.1.07-16.9,1.08-26,1-10.56-.09-19.44-1.58-30-2-12.73-.5-23.26,1.01-36,1-11.55-.01-21.45-1.21-33-1-11.82.21-22.19,1.59-34,2-7.88.28-17.76,0.06-27,0-14.17-.09-28.3.24-43,1-14.98.54-28.84-3.13-37-13-4.22-5.11-5.52-10.12-7-16-1.77-7.06-3.93-15.27-6-23-0.33-3.33-.67-6.67-1-10a52.764,52.764,0,0,1,7-22,49.549,49.549,0,0,1,12-14A48.732,48.732,0,0,1,1359,1157Z" transform="translate(-1314 -1152.72)"/>
</svg>
