<svg xmlns="http://www.w3.org/2000/svg" width="1608.25" height="584.532" viewBox="0 0 1608.25 584.532">
  <defs>
    <style>
      .cls-1 {
        fill-rule: evenodd;
      }
    </style>
  </defs>
  <path class="cls-1" d="M1202,809c63.3-28.067,140.16-20.694,152-19,55.22,7.9,124.33,3.763,194,9,47.76,3.59,109.89,5.094,169,5,69.66-.11,133.86-5.078,203.5-6.592,71.19-1.549,137.64,1.258,208.84.776,67.83-.46,155.88-0.223,190.1-4.248,38.41-4.519,135.43-6.943,207.56-10.936,18.46-1.022,77.45-4.283,129,31,22.08,15.114,37.89,33.106,48,52,18.59,34.727,16.67,68.458,16,87-1.64,45.437,5.84,80.53,6,126,0.14,39.61-5.36,71.41-4,111,1.18,34.45,4.56,72.31-20,106-16.8,23.05-40,35.3-65,44-60.98,21.22-142.37,19.81-151,19-58.26-5.48-102.94,2.59-161.4.04-67.7-2.95-141.91-5.18-197.97-4.85-71.25.41-134.88,6.77-206.13,7.4-71.05.64-135.45-4.36-206.5-4.59-73.62-.24-155.61,1.13-211,5-57.53,4.02-99.8-4.38-157,3-13.34,1.72-78.85,7.28-134-14-30.56-11.79-49.73-26.43-63-44-25.79-34.13-25.05-72.81-25.06-96.56-0.01-46.65-6.75-84.29-6.17-130.94,0.47-37.62,5.38-68.49,4.05-106.08-1.49-42.237-6.23-80.19,18.18-116.42C1151.97,839.231,1170.28,823.064,1202,809Z" transform="translate(-1117.75 -782.438)"/>
</svg>
